HIERARCHY
ROOT Hips
{
	OFFSET 0.000000 0.000000 0.000000
	CHANNELS 6 Xposition Yposition Zposition Zrotation Yrotation Xrotation 
	JOINT LHipJoint
	{
		OFFSET 0.000000 0.000000 0.000000
		CHANNELS 3 Zrotation Yrotation Xrotation
		JOINT LeftUpLeg
		{
			OFFSET 1.363060 -1.794630 0.839290
			CHANNELS 3 Zrotation Yrotation Xrotation
			JOINT LeftLeg
			{
				OFFSET 2.448110 -6.726130 0.000000
				CHANNELS 3 Zrotation Yrotation Xrotation
				JOINT LeftFoot
				{
					OFFSET 2.562200 -7.039590 0.000000
					CHANNELS 3 Zrotation Yrotation Xrotation
					JOINT LeftToeBase
					{
						OFFSET 0.157640 -0.433110 2.322550
						CHANNELS 3 Zrotation Yrotation Xrotation
						End Site
						{
							OFFSET 0.000000 0.000000 0.000000
						}
					}
				}
			}
		}
	}
	JOINT RHipJoint
	{
		OFFSET 0.000000 0.000000 0.000000
		CHANNELS 3 Zrotation Yrotation Xrotation
		JOINT RightUpLeg
		{
			OFFSET -1.305520 -1.794630 0.839290
			CHANNELS 3 Zrotation Yrotation Xrotation
			JOINT RightLeg
			{
				OFFSET -2.542530 -6.985550 0.000000
				CHANNELS 3 Zrotation Yrotation Xrotation
				JOINT RightFoot
				{
					OFFSET -2.568260 -7.056230 0.000000
					CHANNELS 3 Zrotation Yrotation Xrotation
					JOINT RightToeBase
					{
						OFFSET -0.164730 -0.452590 2.363150
						CHANNELS 3 Zrotation Yrotation Xrotation
						End Site
						{
							OFFSET 0.000000 0.000000 0.000000
						}
					}
				}
			}
		}
	}
	JOINT LowerBack
	{
		OFFSET 0.000000 0.000000 0.000000
		CHANNELS 3 Zrotation Yrotation Xrotation
		JOINT Spine
		{
			OFFSET 0.028270 2.035590 -0.193380
			CHANNELS 3 Zrotation Yrotation Xrotation
			JOINT Spine1
			{
				OFFSET 0.056720 2.048850 -0.042750
				CHANNELS 3 Zrotation Yrotation Xrotation
				JOINT Neck
				{
					OFFSET 0.000000 0.000000 0.000000
					CHANNELS 3 Zrotation Yrotation Xrotation
					JOINT Neck1
					{
						OFFSET -0.054170 1.746240 0.172020
						CHANNELS 3 Zrotation Yrotation Xrotation
						JOINT Head
						{
							OFFSET 0.104070 1.761360 -0.123970
							CHANNELS 3 Zrotation Yrotation Xrotation
							End Site
							{
								OFFSET 0.000000 0.000000 0.000000
							}
						}
					}
				}
				JOINT LeftShoulder
				{
					OFFSET 0.000000 0.000000 0.000000
					CHANNELS 3 Zrotation Yrotation Xrotation
					JOINT LeftArm
					{
						OFFSET 3.362410 1.200890 -0.311210
						CHANNELS 3 Zrotation Yrotation Xrotation
						JOINT LeftForeArm
						{
							OFFSET 4.983000 -0.000000 -0.000000
							CHANNELS 3 Zrotation Yrotation Xrotation
							JOINT LeftHand
							{
								OFFSET 3.483560 -0.000000 -0.000000
								CHANNELS 3 Zrotation Yrotation Xrotation
								JOINT LeftFingerBase
								{
									OFFSET 0.000000 0.000000 0.000000
									CHANNELS 3 Zrotation Yrotation Xrotation
									JOINT LeftHandIndex1
									{
										OFFSET 0.715260 -0.000000 -0.000000
										CHANNELS 3 Zrotation Yrotation Xrotation
										End Site
										{
											OFFSET 0.000000 0.000000 0.000000
										}
									}
								}
								JOINT LThumb
								{
									OFFSET 0.000000 0.000000 0.000000
									CHANNELS 3 Zrotation Yrotation Xrotation
									End Site
									{
										OFFSET 0.000000 0.000000 0.000000
									}
								}
							}
						}
					}
				}
				JOINT RightShoulder
				{
					OFFSET 0.000000 0.000000 0.000000
					CHANNELS 3 Zrotation Yrotation Xrotation
					JOINT RightArm
					{
						OFFSET -3.136600 1.374050 -0.404650
						CHANNELS 3 Zrotation Yrotation Xrotation
						JOINT RightForeArm
						{
							OFFSET -5.241900 -0.000000 -0.000000
							CHANNELS 3 Zrotation Yrotation Xrotation
							JOINT RightHand
							{
								OFFSET -3.444170 -0.000000 -0.000000
								CHANNELS 3 Zrotation Yrotation Xrotation
								JOINT RightFingerBase
								{
									OFFSET 0.000000 0.000000 0.000000
									CHANNELS 3 Zrotation Yrotation Xrotation
									JOINT RightHandIndex1
									{
										OFFSET -0.622530 -0.000000 -0.000000
										CHANNELS 3 Zrotation Yrotation Xrotation
										End Site
										{
											OFFSET 0.000000 0.000000 0.000000
										}
									}
								}
								JOINT RThumb
								{
									OFFSET 0.000000 0.000000 0.000000
									CHANNELS 3 Zrotation Yrotation Xrotation
									End Site
									{
										OFFSET 0.000000 0.000000 0.000000
									}
								}
							}
						}
					}
				}
			}
		}
	}
}
MOTION
Frames: 5
Frame Time: 0.008333
6.372044 17.993486 -0.646976 -1.305318 -7.058073 -0.269707 -3.693903 3.403115 3.829604 -16.196723 9.003960 -16.117460 0.843912 9.045173 28.814281 -3.907039 16.059437 -13.999162 0.003000 -0.353100 -0.970100 1.564618 -3.464400 1.786095 12.977274 16.337608 -10.150922 -0.649127 -8.295733 26.541287 1.007089 -5.165388 -2.620663 -0.727900 5.451400 -15.200700 2.322627 -0.616708 3.878560 1.211300 -0.568411 -1.062249 -0.758642 -0.331578 1.614278 -5.667191 -1.510626 -9.045448 10.053191 -1.865470 -4.918683 2.608600 -1.078100 0.597300 -3.875260 -1.678385 0.722252 -90.872040 -20.550557 60.501951 70.993641 -58.460477 -41.349414 -0.377933 0.880862 -28.670752 42.983553 11.511687 9.358100 -7.125000 0.000000 0.000000 14.530600 43.315100 -0.618100 6.604200 1.260339 0.392753 85.669987 15.509455 72.362118 -48.842486 53.959689 -23.463854 0.145494 -0.729339 -9.374984 -60.587006 27.622746 -40.850000 7.125000 0.000000 0.000000 -16.210800 17.031900 -20.947300 
6.377816 17.999361 -0.653675 -1.431139 -7.196564 -0.387303 -3.680047 3.428643 3.833856 -16.069896 9.125655 -16.127007 0.874742 9.084911 28.930935 -3.875246 15.957531 -13.981113 0.006700 -0.526600 -1.447100 1.568072 -3.484102 1.793643 13.135903 16.432828 -9.919114 -0.620052 -8.237574 26.389239 1.028500 -5.233513 -2.523334 -0.755200 5.550400 -15.485300 2.403482 -0.556324 4.047243 1.222132 -0.475331 -1.022937 -0.779026 -0.285081 1.575915 -5.540694 -1.593055 -9.608090 9.913492 -1.970762 -4.299746 2.532100 -1.097600 0.884000 -3.874919 -1.649826 0.717651 -90.941381 -20.523815 60.526023 70.842089 -58.447005 -41.226211 -0.371625 0.883469 -28.511025 43.061236 11.389862 9.272500 -7.125000 0.000000 0.000000 14.579800 43.167200 -0.674800 6.608128 1.282862 0.399042 85.591883 15.559581 72.421757 -49.079932 54.054323 -23.634891 0.150177 -0.734143 -9.515110 -60.412671 27.076711 -40.163800 7.125000 0.000000 0.000000 -16.304900 16.241000 -20.931500 
6.385444 17.998949 -0.657077 -1.553470 -7.457249 -0.379419 -3.677537 3.440355 3.844263 -16.004701 9.258694 -16.172718 0.879746 9.091460 28.957681 -3.814645 15.812234 -14.140776 0.004600 -0.439200 -1.206800 1.573919 -3.492088 1.774676 13.249928 16.770323 -9.823411 -0.621691 -8.232343 26.392179 1.045202 -5.285077 -2.457205 -0.751900 5.538300 -15.450400 2.547175 -0.362644 4.029079 1.235717 -0.211919 -1.036141 -0.825295 -0.149375 1.551282 -5.773609 -1.746599 -9.549609 10.039690 -2.155942 -4.154070 2.613400 -1.180500 0.931800 -3.871367 -1.648163 0.718739 -91.130125 -20.403694 60.831951 70.870834 -58.461822 -41.223962 -0.372734 0.887207 -28.502632 42.887966 11.294069 9.130600 -7.125000 0.000000 0.000000 14.400300 43.015400 -0.721300 6.609537 1.295397 0.390546 85.433369 15.441203 72.180582 -49.260844 54.114424 -23.772664 0.154777 -0.742778 -9.800987 -59.968630 26.455074 -39.089100 7.125000 0.000000 0.000000 -16.279500 15.143400 -20.686900 
6.392349 17.989879 -0.666559 -1.477808 -8.092691 -0.482990 -3.686530 3.467889 3.860554 -16.172904 9.731063 -16.243506 0.913015 9.114397 29.080968 -3.711493 15.582775 -14.374702 0.000900 -0.197000 -0.541300 1.574852 -3.511004 1.757497 13.163209 17.280608 -9.628906 -0.604198 -8.197336 26.292893 1.026497 -5.172532 -2.176742 -0.699100 5.344700 -14.894300 2.337484 -0.127811 4.179371 1.240361 0.099050 -1.003209 -0.679976 -0.005928 1.502874 -5.174905 -2.014234 -10.436943 9.118736 -2.550823 -3.140710 2.193300 -1.338600 1.381300 -3.869884 -1.614186 0.710818 -91.244969 -20.356171 60.903165 71.113973 -58.495017 -41.409647 -0.379673 0.887792 -28.483716 42.668120 11.443396 9.194100 -7.125000 0.000000 0.000000 14.223300 43.175700 -0.654500 6.614752 1.322052 0.392240 85.309351 15.477703 72.045856 -49.179003 54.075707 -23.721925 0.154617 -0.740370 -9.847392 -59.992554 26.533901 -39.184900 7.125000 0.000000 0.000000 -16.267000 15.254000 -20.691400 
6.407913 17.989466 -0.676351 -1.720119 -8.424554 -0.507852 -3.676003 3.501387 3.871671 -16.002895 9.952239 -16.318105 0.941982 9.150875 29.177959 -3.678776 15.479406 -14.384436 0.000200 0.094800 0.260500 1.574455 -3.514310 1.738269 13.399915 17.507236 -9.495255 -0.593083 -8.166805 26.243265 0.992673 -5.023283 -2.156166 -0.591300 4.923300 -13.690000 2.514390 -0.113293 4.335770 1.302209 0.145304 -0.962035 -0.622105 0.003930 1.437792 -3.283076 -2.544408 -13.380784 6.444528 -3.347640 -0.102538 0.973400 -1.646500 2.792100 -3.881932 -1.487010 0.677504 -91.350954 -20.369868 60.774562 71.241797 -58.515464 -41.526294 -0.380099 0.887154 -28.475878 42.746583 11.524687 9.290100 -7.125000 0.000000 0.000000 14.310700 43.290900 -0.617100 6.606118 1.407034 0.411402 85.237107 15.583641 71.966423 -48.835633 53.962003 -23.491868 0.151054 -0.712888 -9.889981 -61.220454 28.150843 -42.053800 7.125000 0.000000 0.000000 -16.360500 18.147100 -21.353500 
